<svg version="1.1" style="width:100%;height:100%" viewBox="0.0 0.0 436.0 120.0" fill="none" stroke="none" stroke-linecap="square" stroke-miterlimit="10" xmlns="http://www.w3.org/2000/svg" xmlns:xlink="http://www.w3.org/1999/xlink">
	<g>
		<path fill="#ff0000" d="m0 0l219 0l0 120.0l-219 0z" fill-rule="nonzero"></path>
		<path fill="#ffffff" d="m62.71504 65.55062l-27.75 29.109375l-7.40625 0l31.5 -33.046875l-29.953125 -31.359375l7.40625 0l26.203125 27.5625l26.296879 -27.5625l7.40625 0l-29.953125 31.359375l31.453125 33.046875l-7.359375 0l-27.843754 -29.109375z" fill-rule="nonzero"></path>
		<path fill="#ffffff" d="m125.41874 29.578865l64.40626 0l0 5.859375l-64.40626 0l0 -5.859375zm0 27.5625l64.40626 0l0 5.859375l-64.40626 0l0 -5.859375zm0 27.5625l64.40626 0l0 5.859375l-64.40626 0l0 -5.859375z" fill-rule="nonzero"></path>
		<path fill="#000000" d="m219 0l219 0l0 120.0l-219 0z" fill-rule="nonzero"></path>
		<path fill="#ff9900" d="m264.98822 35.73812l0 22.171875l42.84375 0l0 5.4375l-42.84375 0l0 31.3125l-5.859375 0l0 -64.40625l51.0 0l0 5.484375l-45.140625 0z" fill-rule="nonzero"></path>
		<path fill="#ff9900" d="m379.11237 94.659996l0 -59.25l-15.375 4.828125l0 -5.203125l15.375 -4.78125l5.765625 0l0 64.40625l-5.765625 0z" fill-rule="nonzero"></path>
	</g>
</svg>