<svg version="1.1" style="width:100%;height:100%" viewBox="0.0 0.0 219.0 120.0" fill="none" stroke="none" stroke-linecap="square" stroke-miterlimit="10" xmlns="http://www.w3.org/2000/svg" xmlns:xlink="http://www.w3.org/1999/xlink">
	<g>
		<path fill="#f24235" d="m0 0l219 0l0 120.0l-219 0z" fill-rule="nonzero"></path>
		<path fill="#ffffff" d="m62.71504 65.55062l-27.75 29.109375l-7.40625 0l31.5 -33.046875l-29.953125 -31.359375l7.40625 0l26.203125 27.5625l26.296879 -27.5625l7.40625 0l-29.953125 31.359375l31.453125 33.046875l-7.359375 0l-27.843754 -29.109375z" fill-rule="nonzero"></path>
		<path fill="#ffffff" d="m125.41874 29.578865l64.40626 0l0 5.859375l-64.40626 0l0 -5.859375zm0 27.5625l64.40626 0l0 5.859375l-64.40626 0l0 -5.859375zm0 27.5625l64.40626 0l0 5.859375l-64.40626 0l0 -5.859375z" fill-rule="nonzero"></path>
	</g>
</svg>